<?xml version="1.0" encoding="UTF-8"?>
<svg id="a" xmlns="http://www.w3.org/2000/svg" viewBox="0 0 108 114">
    <path
        d="M108,0v114H0V0h108ZM29.37,9.63c-3.27-3.1-6.05,2.05-6.74,4.76-1.96,7.66,1.52,14.4,6.36,20.11-5.5-1.54-10.87-3.09-16.63-1.88-7.85,1.65-6.92,6.12-2.78,11.55,3.53,4.63,9.19,6.9,14.89,7.36-1,2.75,1.96,10.23,1.45,12.12-.16.61-3.44,3.88-4.2,5.33-4.62,8.84-.06,19.16,7.93,24.12,2.33,1.45,9.08,3.46,10.13,4.37.78.67,2.32,4.63,3.8,6.2,4.67,4.95,12.3,5.25,17.19.35,1.22-1.22,2.06-3.78,2.75-4.25.96-.65,5.89-1.2,7.74-1.76,14.22-4.37,27.58-20.4,13.82-33.33,1.78-4.23,2.12-8.61,1.95-13.15,7.09-.19,15-3.98,18.06-10.69,1.48-3.24,1.74-5.28-1.64-7.04-5.57-2.9-14.18-.96-19.95.69,5.25-5.19,8.68-12.02,6.76-19.51-.72-2.8-2.88-6.95-6.41-5.91-1.63.49-2.04,5.37-2.84,7.18-1.62,3.65-5.62,6.61-9.26,8.05-8.51-3.87-17.15-4.26-26.14-1.95-1.3.34-2.74,1.39-3.99,1.55-3.31.43-8.52-5.07-9.86-7.91-.69-1.45-1.46-5.5-2.38-6.37Z"
        style="fill:none;" />
    <path
        d="M29.37,9.63c.92.87,1.69,4.92,2.38,6.37,1.35,2.85,6.55,8.35,9.86,7.91,1.25-.16,2.69-1.22,3.99-1.55,8.99-2.31,17.64-1.92,26.14,1.95,3.64-1.43,7.65-4.4,9.26-8.05.8-1.81,1.21-6.7,2.84-7.18,3.53-1.05,5.69,3.1,6.41,5.91,1.92,7.49-1.52,14.32-6.76,19.51,5.77-1.66,14.38-3.59,19.95-.69,3.38,1.76,3.11,3.8,1.64,7.04-3.06,6.7-10.97,10.5-18.06,10.69.17,4.55-.17,8.92-1.95,13.15,13.76,12.93.41,28.96-13.82,33.33-1.85.57-6.78,1.11-7.74,1.76-.69.47-1.53,3.03-2.75,4.25-4.89,4.9-12.52,4.59-17.19-.35-1.48-1.57-3.03-5.52-3.8-6.2-1.05-.92-7.8-2.92-10.13-4.37-7.99-4.97-12.55-15.28-7.93-24.12.76-1.46,4.04-4.72,4.2-5.33.51-1.88-2.45-9.36-1.45-12.12-5.7-.46-11.36-2.73-14.89-7.36-4.14-5.43-5.07-9.9,2.78-11.55,5.76-1.21,11.13.34,16.63,1.88-4.84-5.71-8.32-12.45-6.36-20.11.69-2.71,3.47-7.86,6.74-4.76ZM80.98,62.49c4.26-15.03-.78-32.18-17.47-35.74-14.55-3.11-29.84,1.19-33.27,17.24-1.15,5.38-1.71,12.59,1.08,17.48,2.58-.45,5.33-1.25,7.94-1.45,9.8-.74,23.79-.89,33.43.56,2.83.43,5.5,1.42,8.3,1.92ZM65,94c7.57-.65,17.36-5.98,19.65-13.6,3.72-12.38-9.01-15.33-18.41-15.9-7.76-.47-27.48-.89-34.08,1.91-14.64,6.2-4.9,23.29,7.08,25.6l2.29-8.27c-1.25-3.91-6.11-7.32-3.9-11.86s4.85.53,6.61,2.14c5.81,5.33,15.26,3.55,21.61.08,1.62-.88,5.81-5.36,7.06-1.25,1.86,6.13-3.72,7.71-5.84,11.97-1.36,2.72-1.66,6.2-2.06,9.19ZM62,81.5l-5.76.98c-.89,1.72-2.11,11.2-3.49,11.51-3.34.75-1.06-10.18-.24-12-5.77-1.25-7.19,2.41-7.87,7.38-.77,5.62.78,13.62,8.06,13.1,9.34-.67,7.46-14.66,9.31-20.98Z" />
    <path
        d="M80.98,62.49c-2.8-.5-5.47-1.49-8.3-1.92-9.64-1.46-23.63-1.31-33.43-.56-2.61.2-5.36,1.01-7.94,1.45-2.79-4.88-2.23-12.09-1.08-17.48,3.44-16.05,18.72-20.35,33.27-17.24,16.69,3.57,21.73,20.71,17.47,35.74ZM40.67,41.67c-5.3,5.35-.51,17.89,6.97,14.21,9.01-4.43.42-21.67-6.97-14.21ZM65.86,44.62c-2.84.52-8.63,6.19-5.9,8.17,1.76,1.27,4.66-3.34,7.79-3.3,3.88.04,5.97,7.15,8.27,3.3,2.82-4.71-5.61-8.99-10.16-8.16Z"
        style="fill:none;" />
    <path
        d="M65,94c.4-2.99.7-6.46,2.06-9.19,2.12-4.26,7.7-5.83,5.84-11.97-1.25-4.11-5.44.37-7.06,1.25-6.35,3.47-15.8,5.25-21.61-.08-1.76-1.61-4.32-6.85-6.61-2.14s2.66,7.95,3.9,11.86l-2.29,8.27c-11.99-2.31-21.73-19.4-7.08-25.6,6.6-2.79,26.32-2.37,34.08-1.91,9.39.57,22.12,3.52,18.41,15.9-2.29,7.62-12.08,12.94-19.65,13.6Z"
        style="fill:none;" />
    <path
        d="M62,81.5c-1.85,6.32.03,20.31-9.31,20.98-7.29.52-8.83-7.48-8.06-13.1.68-4.97,2.1-8.63,7.87-7.38-.82,1.81-3.09,12.75.24,12,1.39-.31,2.6-9.79,3.49-11.51l5.76-.98Z"
        style="fill:none;" />
    <path
        d="M40.67,41.67c7.39-7.45,15.98,9.78,6.97,14.21-7.48,3.68-12.27-8.87-6.97-14.21ZM45.38,48.87c.69-.7.73-2.58.55-3.55-.73-2.22-4.54.41-3.87,2.81.4,1.42,2.34,1.73,3.31.74Z" />
    <path
        d="M65.86,44.62c4.55-.83,12.98,3.45,10.16,8.16-2.3,3.85-4.39-3.26-8.27-3.3-3.13-.03-6.04,4.57-7.79,3.3-2.74-1.97,3.06-7.65,5.9-8.17Z" />
    <path
        d="M45.38,48.87c-.98.99-2.91.69-3.31-.74-.68-2.4,3.13-5.03,3.87-2.81.18.97.14,2.85-.55,3.55Z"
        style="fill:none;" />
</svg>