<?xml version="1.0" encoding="UTF-8"?>
<svg id="a" xmlns="http://www.w3.org/2000/svg" viewBox="0 0 108 114">
    <path
        d="M108,0v114H0V0h108ZM82.5,33.99c4.17-5.2,6.7-10.33,5.99-17.24-.32-3.09-2.15-8.3-6.01-7.57-2.93.56-2.24,3.19-3.1,5.45-1.25,3.26-6.14,8.94-9.72,9.25-.75.06-7.63-2.59-9.98-2.83-5.01-.5-10.44-.13-15.3,1.08-1.29.32-5.82,2.23-6.43,2.12-2.99-.55-7.66-5.31-8.91-8.07s-2.39-10.92-7.33-5.72c-5.79,6.11-.93,18.06,3.77,23.52-5.71-1.7-11.08-2.89-17.02-1.27-6.24,1.7-6.44,4.86-3.39,9.93,3.76,6.26,9.82,8.78,16.86,9.39l1.98,13.1c-13.47,13.99-2.5,28.22,12.23,34.44,5.6,2.37,6.91,2.41,12.18,5.82,6.27,4.05,16.49,4.94,22.11-.71,1.68-1.69,2.54-4.74,3.7-6.05.9-1.01,4.77-2.71,6.31-3.94,9.2-7.34,12.95-20.59,3.53-29.47,1.46-4.3,1.66-8.41,1.58-12.92.3-.92,5.18-1.22,6.78-1.72,4.52-1.41,12.68-8.31,12.6-13.36-.1-7.13-18.13-5.29-22.45-3.24Z"
        style="fill:none;" />
    <path
        d="M82.5,33.99c4.32-2.04,22.35-3.88,22.45,3.24.07,5.04-8.09,11.94-12.6,13.36-1.6.5-6.47.8-6.78,1.72.08,4.51-.12,8.62-1.58,12.92,9.42,8.88,5.66,22.13-3.53,29.47-1.54,1.23-5.4,2.93-6.31,3.94-1.17,1.31-2.02,4.36-3.7,6.05-5.62,5.65-15.84,4.76-22.11.71-5.27-3.4-6.58-3.45-12.18-5.82-14.73-6.22-25.7-20.45-12.23-34.44l-1.98-13.1c-7.04-.61-13.1-3.13-16.86-9.39-3.05-5.08-2.85-8.23,3.39-9.93s11.32-.44,17.02,1.27c-4.71-5.45-9.56-17.41-3.77-23.52,4.93-5.2,6.09,2.99,7.33,5.72s5.92,7.51,8.91,8.07c.61.11,5.14-1.8,6.43-2.12,4.85-1.21,10.29-1.58,15.3-1.08,2.34.23,9.23,2.89,9.98,2.83,3.58-.31,8.48-5.99,9.72-9.25.86-2.25.16-4.89,3.1-5.45,3.86-.74,5.69,4.48,6.01,7.57.71,6.91-1.83,12.04-5.99,17.24ZM79.48,62.98c2.15-6.88,1.94-14.85-.6-21.61-5.22-13.89-21.51-17.99-34.77-14.01-15.2,4.57-20.02,21.68-15.1,35.64,3.76-.89,7.85-1.79,11.72-2.03,7.61-.46,18.44-.47,26.05,0,4.27.26,8.49,1.46,12.71,2ZM81.32,70.68c-1.5-1.54-4.35-2.76-6.43-3.32-7.81-2.11-36.62-2.36-44.03.25-12.26,4.33-8.02,17.38.47,23.3,6.08,4.25,11.13,3.88,16.52,6.48,1.58.76,2.73,2.82,4.17,3.83,4.77,3.33,12.95,3.11,16.38-2.05.93-1.41,1.31-3.55,2.3-4.7s4.56-2.46,6.24-3.76c5.63-4.34,10.13-14.09,4.36-20.03Z" />
    <path
        d="M81.32,70.68c5.76,5.94,1.27,15.69-4.36,20.03-1.69,1.3-5.26,2.62-6.24,3.76s-1.37,3.29-2.3,4.7c-3.43,5.17-11.61,5.38-16.38,2.05-1.45-1.01-2.6-3.07-4.17-3.83-5.39-2.59-10.44-2.23-16.52-6.48-8.49-5.93-12.74-18.97-.47-23.3,7.4-2.61,36.22-2.36,44.03-.25,2.08.56,4.93,1.78,6.43,3.32ZM38.36,71.1c-3.74,1.12-4.15,9.91,0,10.8,7.68,1.65,7.3-12.99,0-10.8ZM66.36,71.1c-5.22,1.14-3.91,14.33,2.91,10.43,5.3-3.03,3.16-11.75-2.91-10.43ZM57.37,84.12c-10.71,1.83-6.74,19.36,4.98,14.48,8.63-3.59,5.88-16.34-4.98-14.48Z"
        style="fill:none;" />
    <path
        d="M79.48,62.98c-4.22-.55-8.44-1.74-12.71-2-7.61-.47-18.43-.46-26.05,0-3.87.23-7.96,1.13-11.72,2.03-4.92-13.96-.1-31.08,15.1-35.64,13.26-3.98,29.55.12,34.77,14.01,2.54,6.76,2.75,14.74.6,21.61ZM71.62,53.38c1.69,1.77,3.42-.27,3.42-2.63-.02-11.38-13.29-14.46-17.06-4.01-1.41,3.91-1.27,12.72,4.64,11.14,4.37-1.16,3.73-8.45-.63-9.13-.12-2.15,3.5-3.06,5.24-2.74,3.19.59,3.12,6.05,4.39,7.37ZM42.38,41.09c-5.1.58-7.06,7.19-6.31,11.58,3.29,3.21,3.36-3.67,5.2-5.65,2.08-2.25,5.31-.75,5.27,2.24-.03,2.08-3.43,3.4-2.33,6.76s6.45,1.9,7.18-1.38c1.32-5.89-1.95-14.35-9.01-13.55Z"
        style="fill:none;" />
    <path
        d="M57.37,84.12c10.86-1.86,13.61,10.89,4.98,14.48-11.72,4.88-15.68-12.64-4.98-14.48ZM56.61,93.88c1.85,1.3,5.41,1.23,5.42-1.62.03-6.11-7.76-.53-5.42,1.62Z" />
    <path d="M66.36,71.1c6.07-1.32,8.21,7.4,2.91,10.43-6.83,3.9-8.14-9.29-2.91-10.43Z" />
    <path d="M38.36,71.1c7.31-2.19,7.69,12.46,0,10.8-4.15-.89-3.75-9.68,0-10.8Z" />
    <path
        d="M71.62,53.38c-1.27-1.32-1.2-6.78-4.39-7.37-1.74-.32-5.36.58-5.24,2.74,4.36.68,5,7.97.63,9.13-5.91,1.57-6.05-7.23-4.64-11.14,3.76-10.45,17.03-7.36,17.06,4.01,0,2.36-1.72,4.4-3.42,2.63Z" />
    <path
        d="M42.38,41.09c7.06-.8,10.33,7.66,9.01,13.55-.73,3.28-6.03,4.88-7.18,1.38s2.3-4.68,2.33-6.76c.04-2.98-3.18-4.49-5.27-2.24-1.84,1.98-1.91,8.86-5.2,5.65-.76-4.39,1.21-11.01,6.31-11.58Z" />
    <path d="M56.61,93.88c-2.34-2.15,5.45-7.73,5.42-1.62-.01,2.85-3.58,2.92-5.42,1.62Z"
        style="fill:none;" />
</svg>