<?xml version="1.0" encoding="UTF-8"?>
<svg id="a" xmlns="http://www.w3.org/2000/svg" viewBox="0 0 108 114">
    <path
        d="M108,0v114H0V0h108ZM84.33,14.17c-4.62-4.45-5.61,2.7-6.73,5.17-1.52,3.36-5.13,7.93-8.97,8.57-1.35.23-8.26-2.59-10.93-2.86-5.42-.54-10.68.14-15.91,1.47-1.22.31-3.76,1.78-4.53,1.78-.71,0-6.05-3.34-6.75-4.06-2.81-2.92-4.24-15.57-9.51-9.5-5.84,6.72-1.07,17.95,4.01,23.75-6.48-2.02-11.86-3.5-18.61-1.36-4.77,1.51-5.1,3.07-3.15,7.37,3.12,6.91,10.23,10.98,17.74,11.02-.28,3.1,1.91,9.63,1.52,12.18-.25,1.67-3.66,4.89-4.27,8.27-3.68,20.23,20.49,30.2,37.02,29.02,17.84-1.28,42.05-17.66,26.78-36.72,1.36-4.08,1.95-8.42,2.03-12.72,7.25-.73,12.92-3.79,16.66-10.09,1.72-2.9,3.15-5.32-.35-7.57-5.64-3.61-14.34-.72-20.36.6,5.64-4.95,10.39-18.48,4.33-24.32Z"
        style="fill:none;" />
    <path
        d="M84.33,14.17c6.06,5.84,1.31,19.37-4.33,24.32,6.01-1.32,14.72-4.22,20.36-.6,3.5,2.24,2.07,4.67.35,7.57-3.73,6.3-9.41,9.36-16.66,10.09-.08,4.3-.67,8.64-2.03,12.72,15.27,19.06-8.94,35.44-26.78,36.72-16.53,1.18-40.7-8.79-37.02-29.02.61-3.38,4.02-6.59,4.27-8.27.39-2.54-1.81-9.08-1.52-12.18-7.51-.04-14.61-4.11-17.74-11.02-1.95-4.31-1.62-5.86,3.15-7.37,6.76-2.14,12.14-.66,18.61,1.36-5.08-5.8-9.85-17.03-4.01-23.75,5.27-6.06,6.7,6.59,9.51,9.5.7.72,6.03,4.06,6.75,4.06.77,0,3.31-1.47,4.53-1.78,5.23-1.33,10.49-2.01,15.91-1.47,2.67.27,9.58,3.08,10.93,2.86,3.84-.64,7.46-5.22,8.97-8.57,1.12-2.47,2.11-9.63,6.73-5.17ZM77.49,67c5.72-15.72-2.18-35.38-20.25-36.99-13.11-1.17-25.32,3.01-29.6,16.38-1.79,5.59-2.85,13.52-.14,18.89,4.72-.7,9.44-1.02,14.25-.78,2.46.12,5.51.9,7.98,1.02,9.31.42,18.87-2.03,27.76,1.48ZM32.89,68.64c-9.77,1.25-12.58,10.7-7.99,18.7,10.29,17.93,52.65,15.85,56.37-4.32,3.21-17.41-18.69-12.75-28.54-13-6.33-.16-13.56-2.18-19.84-1.38Z" />
    <path
        d="M77.49,67c-8.9-3.51-18.46-1.06-27.76-1.48-2.48-.11-5.52-.89-7.98-1.02-4.8-.24-9.53.08-14.25.78-2.7-5.37-1.64-13.3.14-18.89,4.28-13.37,16.49-17.55,29.6-16.38,18.07,1.61,25.97,21.28,20.25,36.99ZM46.12,55.88c1.57,1.59,4,.46,3.91-2.11-.17-5.14-5.98-9.01-10.87-6.87s-7.65,11.08-2.99,9.54c1.31-.43,2.47-5.49,6-5.3s2.83,3.6,3.94,4.73ZM58.85,56.34c1.34-1.14,2.67-4.8,5.4-4.81,3.85-.02,3.04,6.72,6.4,5.9,3.92-.96-.38-10.16-4.92-10.9s-8.4,2.9-9.39,7.07c-.54,2.3.44,4.51,2.51,2.74Z"
        style="fill:none;" />
    <path
        d="M32.89,68.64c6.28-.8,13.51,1.22,19.84,1.38,9.86.26,31.76-4.41,28.54,13-3.72,20.17-46.08,22.25-56.37,4.32-4.59-8-1.79-17.45,7.99-18.7ZM68.88,77.62c-4.8-2.52-3.87,2.83-7.2,4.81-5.21,3.09-16.13,2.68-20.44-1.92-1.34-1.42-3.23-6.28-6.12-3.39-2.53,2.53,2.36,8.01,4.42,9.59,4.92,3.76,10.64,4.39,16.7,3.79,5.72-.57,15.6-6.03,12.64-12.88Z"
        style="fill:none;" />
    <path
        d="M58.85,56.34c-2.07,1.77-3.05-.44-2.51-2.74.99-4.16,4.91-7.81,9.39-7.07s8.85,9.95,4.92,10.9c-3.36.82-2.55-5.92-6.4-5.9-2.73.01-4.06,3.67-5.4,4.81Z" />
    <path
        d="M46.12,55.88c-1.12-1.13-.43-4.55-3.94-4.73s-4.7,4.87-6,5.3c-4.66,1.54-1.65-7.51,2.99-9.54,4.89-2.14,10.7,1.73,10.87,6.87.09,2.57-2.35,3.7-3.91,2.11Z" />
    <path
        d="M68.88,77.62c2.96,6.84-6.92,12.31-12.64,12.88-6.06.6-11.78-.03-16.7-3.79-2.07-1.58-6.95-7.06-4.42-9.59,2.89-2.89,4.78,1.97,6.12,3.39,4.31,4.6,15.23,5.01,20.44,1.92,3.33-1.98,2.41-7.33,7.2-4.81Z" />
</svg>