<?xml version="1.0" encoding="UTF-8"?>
<svg id="a" xmlns="http://www.w3.org/2000/svg" viewBox="0 0 108 114">
    <path
        d="M108,0v114H0V0h108ZM82.5,36.49c5.4-5.28,10.17-16.56,5-23.24-4.86-6.27-5.67,1.08-6.9,4.1-1.76,4.34-6.22,7.15-10.26,9.05-8.02-4.11-16.72-4.27-25.34-2.15-4.91,1.21-5.38,3.27-10.46-.55-4.61-3.46-5.26-10.78-7.25-12.24-3.78-2.76-6.28,4.16-6.66,6.92-1,7.31,1.8,12.75,6.37,18.12-5.95-1.23-14.39-3.89-19.97-.22-3.84,2.52-1.25,6.63.86,9.59,3.46,4.85,9.12,7.72,15.12,7.63.03,1.39-.1,2.79.06,4.19.24,2.06,2.03,8.5,1.93,9.54-.14,1.44-3.61,5.72-3.99,9.53-3.07,30.38,55.07,36.95,66.92,8.42,2.21-5.31,2.23-10.61-.72-15.64-.52-.88-2.53-3.02-2.6-3.35-.14-.7,1.24-4.99,1.38-6.45.2-2.01-.12-4.21,0-6.24,6.75.32,12.77-3.29,16.71-8.54,3.57-4.76,4.2-8.29-2.32-10.1s-11.35.13-17.89,1.63Z"
        style="fill:none;" />
    <path
        d="M82.5,36.49c6.54-1.5,11.06-3.53,17.89-1.63s5.89,5.33,2.32,10.1c-3.94,5.25-9.96,8.86-16.71,8.54-.13,2.04.19,4.23,0,6.24-.14,1.46-1.52,5.75-1.38,6.45.07.33,2.08,2.47,2.6,3.35,2.95,5.03,2.93,10.32.72,15.64-11.85,28.53-69.99,21.96-66.92-8.42.39-3.81,3.85-8.09,3.99-9.53.1-1.04-1.7-7.48-1.93-9.54-.16-1.39-.04-2.8-.06-4.19-5.99.08-11.66-2.78-15.12-7.63-2.11-2.96-4.7-7.07-.86-9.59,5.59-3.67,14.02-1.01,19.97.22-4.57-5.36-7.37-10.81-6.37-18.12.38-2.76,2.88-9.68,6.66-6.92,2,1.46,2.65,8.78,7.25,12.24,5.08,3.82,5.55,1.75,10.46.55,8.61-2.11,17.32-1.96,25.34,2.15,4.04-1.91,8.5-4.71,10.26-9.05,1.23-3.02,2.04-10.37,6.9-4.1,5.17,6.68.4,17.96-5,23.24ZM48.89,28.14c-19.92,2.24-24.67,23.86-18.37,40.08-12.64,14.7,3.25,27.43,17.79,29.72,14.45,2.28,38.79-4.17,35.57-23.07-.58-3.38-4.8-6.32-4.83-8.11-.02-1.24,1.64-4.44,1.93-6.52,2.98-21.39-11.06-34.46-32.1-32.1Z" />
    <path
        d="M48.89,28.14c21.03-2.37,35.07,10.71,32.1,32.1-.29,2.08-1.95,5.28-1.93,6.52.03,1.79,4.25,4.72,4.83,8.11,3.22,18.9-21.12,25.34-35.57,23.07-14.54-2.29-30.44-15.01-17.79-29.72-6.3-16.22-1.55-37.84,18.37-40.08ZM41.17,58.83c2.37,2.34,6.82,1.22,8.26-1.64,1.01-2.01,1.5-7.71-.73-9.14-1.45-.93-12.58-2.32-13.47-.55l.47,2.55,3.8.45c-.02,2.65-.4,6.29,1.67,8.33ZM70.02,50.52c4.18.84,5.56-3.32,1.09-3.93-1.11-.15-10.64,1.1-11,1.53-2.18,5.03-1.44,13.97,6.03,12.27,3.84-.87,3.24-6.87,3.88-9.87ZM70.12,81.87c2.11,2.05,5.14.23,4.14-3.39-3.96-14.32-28.32-15.72-36.18-4.15-1.42,2.09-4.47,7.94-.59,8.97h1.02c2.04-.54,2.97-5.31,4.77-7.27,5.09-5.55,19.13-5.45,23.94.51.96,1.18,2.26,4.71,2.91,5.34Z"
        style="fill:none;" />
    <path
        d="M70.12,81.87c-.65-.63-1.95-4.15-2.91-5.34-4.8-5.95-18.85-6.05-23.94-.51-1.8,1.96-2.73,6.73-4.77,7.27h-1.02c-3.87-1.03-.83-6.87.59-8.97,7.87-11.57,32.22-10.17,36.18,4.15,1,3.62-2.03,5.43-4.14,3.39Z" />
    <path
        d="M70.02,50.52c-.64,3-.03,8.99-3.88,9.87-7.47,1.7-8.21-7.24-6.03-12.27.36-.43,9.89-1.68,11-1.53,4.47.61,3.09,4.77-1.09,3.93Z" />
    <path
        d="M41.17,58.83c-2.07-2.04-1.69-5.68-1.67-8.33l-3.8-.45-.47-2.55c.89-1.77,12.01-.38,13.47.55,2.23,1.43,1.75,7.12.73,9.14-1.44,2.86-5.9,3.98-8.26,1.64Z" />
</svg>