<?xml version="1.0" encoding="UTF-8"?>
<svg id="a" xmlns="http://www.w3.org/2000/svg" viewBox="0 0 108 114">
    <path
        d="M108,0v114H0V0h108ZM87.35,9.16c-4.82-4.34-5.29,3.08-6.33,5.61-1.48,3.61-6.04,6.82-9.38,8.66-10.21-4.36-21.18-4.81-31.39-.11-3.46-1.29-7.15-4.14-8.85-7.46-1.51-2.95-2.64-12.38-7.9-5.6-3.25,4.19-2.33,12.04-.09,16.58.48.97,4.9,6.84,4.58,7.16-4.09-2.73-20.27-4.16-21.9,1.36-1.96,6.66,10.66,16.73,17.41,15.14-.22,4.16.46,8.34,1.83,12.26-10.85,12.89-.85,27.2,12.33,32.82,1.81.77,6.75,1.9,7.69,2.57.63.45,1.9,2.93,2.88,3.87,5.99,5.76,14.31,4.73,19.28-1.77.68-.89.65-2.33,1.51-2.99,1.41-1.07,7.89-2.9,10.5-4.5,10.44-6.39,17.62-21.12,5.95-30.11.78-4.02,1.9-8.01,1.53-12.16,6.82,1.72,21.38-9.12,18.24-15.99-2.31-5.06-17.38-2.6-21.74-1.01,5.63-4.47,9.49-19.26,3.85-24.34Z"
        style="fill:none;" />
    <path
        d="M87.35,9.16c5.64,5.08,1.79,19.87-3.85,24.34,4.36-1.59,19.44-4.05,21.74,1.01,3.13,6.88-11.42,17.71-18.24,15.99.37,4.15-.75,8.13-1.53,12.16,11.67,8.99,4.49,23.72-5.95,30.11-2.61,1.6-9.09,3.43-10.5,4.5-.87.66-.83,2.09-1.51,2.99-4.97,6.49-13.28,7.52-19.28,1.77-.98-.94-2.25-3.42-2.88-3.87-.93-.67-5.87-1.79-7.69-2.57-13.18-5.62-23.18-19.94-12.33-32.82-1.37-3.93-2.05-8.1-1.83-12.26-6.75,1.59-19.37-8.48-17.41-15.14,1.63-5.52,17.81-4.09,21.9-1.36.32-.32-4.1-6.19-4.58-7.16-2.24-4.55-3.16-12.39.09-16.58,5.25-6.78,6.38,2.64,7.9,5.6,1.7,3.32,5.39,6.17,8.85,7.46,10.21-4.7,21.17-4.25,31.39.11,3.34-1.83,7.9-5.04,9.38-8.66,1.03-2.53,1.51-9.96,6.33-5.61ZM29.54,59.96c3.31-.42,6.3-1.67,9.71-1.96,11.25-.96,25.28-.99,36.43.56,1.68.23,3.57.6,5.08,1.4,1.58-.13,1.37-10.61,1.23-12.21-1.21-14.69-11.15-21.96-25.25-22.75-21.18-1.19-32.13,15.16-27.2,34.96ZM69.5,91.5c8.41-1.84,18.26-10.04,16.28-19.53-1.69-8.09-11.83-9.08-18.53-9.47-8.67-.5-20.83-.27-29.49.5s-14.39,6.83-11.35,15.34c2.12,5.92,8.36,10.74,14.1,12.9,1.01.38,3.25,1.61,3.49.03.89-5.76-6.78-10.57-7.39-17.16-.79-8.45,9.14-3.48,13.65-3.11,2.94.24,7.56.24,10.51.03,6.25-.46,15.41-6.2,14.17,4.68-.66,5.8-6.45,9.77-5.44,15.8ZM58.5,81.5v9.75c0,.17-1.16,1.31-1.69,1.22-2.35-.39-2.55-8.22-2.29-10.14-3.46-1.71-5.48-1.62-5.98,2.46-.89,7.21,1.03,16.83,10.22,15.72,7.1-.86,7.37-11,4.99-16.02-1.07-2.27-2.67-3.45-5.26-2.99Z" />
    <path
        d="M29.54,59.96c-4.93-19.8,6.02-36.14,27.2-34.96,14.1.79,24.04,8.06,25.25,22.75.13,1.6.34,12.08-1.23,12.21-1.5-.81-3.4-1.17-5.08-1.4-11.15-1.55-25.18-1.52-36.43-.56-3.41.29-6.41,1.53-9.71,1.96ZM64.17,46.67c4.08-4.05,7,1.5,8.81,4.59,2.05,1.08,1.63-4.05,1.51-5.02-.68-5.72-7.38-7.35-11.75-4.25-2.06,1.46-5.93,8.45-2.49,9.03,2.88.48,2.37-2.82,3.91-4.35ZM36.58,51.42c.25.4,1.77.63,2.41.35,2.11-.93,2.4-6.01,6.26-5.29,1.97.37,2.46,4.94,3.97,6.05,3.88,2.86,3.37-5.44,1.29-8.28-4.58-6.26-13.05-3.21-13.94,4.05-.09.71-.27,2.66.02,3.12Z"
        style="fill:none;" />
    <path
        d="M69.5,91.5c-1.01-6.03,4.78-10,5.44-15.8,1.24-10.88-7.92-5.14-14.17-4.68-2.95.22-7.57.21-10.51-.03-4.51-.37-14.44-5.34-13.65,3.11.62,6.59,8.28,11.4,7.39,17.16-.24,1.58-2.48.35-3.49-.03-5.74-2.15-11.99-6.97-14.1-12.9-3.04-8.51,3.11-14.6,11.35-15.34,8.66-.78,20.82-1,29.49-.5,6.7.39,16.84,1.38,18.53,9.47,1.98,9.49-7.86,17.69-16.28,19.53Z"
        style="fill:none;" />
    <path
        d="M58.5,81.5c2.59-.45,4.18.72,5.26,2.99,2.38,5.02,2.11,15.15-4.99,16.02-9.19,1.12-11.11-8.5-10.22-15.72.5-4.08,2.52-4.17,5.98-2.46-.27,1.92-.06,9.75,2.29,10.14.54.09,1.69-1.06,1.69-1.22v-9.75Z"
        style="fill:none;" />
    <path
        d="M36.58,51.42c-.29-.46-.11-2.4-.02-3.12.89-7.26,9.35-10.31,13.94-4.05,2.08,2.84,2.59,11.15-1.29,8.28-1.51-1.12-2-5.69-3.97-6.05-3.86-.72-4.14,4.36-6.26,5.29-.63.28-2.15.05-2.41-.35Z" />
    <path
        d="M64.17,46.67c-1.54,1.53-1.03,4.83-3.91,4.35-3.45-.57.43-7.57,2.49-9.03,4.37-3.1,11.08-1.46,11.75,4.25.11.97.54,6.1-1.51,5.02-1.81-3.1-4.74-8.65-8.81-4.59Z" />
</svg>