<?xml version="1.0" encoding="UTF-8"?>
<svg id="a" xmlns="http://www.w3.org/2000/svg" viewBox="0 0 108 114">
    <path
        d="M108,0v114H0V0h108ZM81,36.49c5.64-4.96,9.99-16.8,5-23.24-5.33-6.88-6.66,3.96-9.24,7.26-1.19,1.52-5.77,5.2-7.59,5.36-1.44.13-6.94-2.54-9.48-2.82-4.36-.48-10.34-.2-14.61.78-5.68,1.3-6.16,3.82-11.75-.42-2.25-1.71-3.56-3.7-4.76-6.24s-1.01-6.2-4.32-6.2c-5.97,0-6.41,14.22-3.52,18.04l5.26,7.48c-5.78-2.4-12.82-3.48-18.91-1.66-5.52,1.66-4.76,4.85-2.3,9.12,3.81,6.62,9.26,8.83,16.63,9.63-.47,2.47,2.26,10.63,1.97,12.1-.06.33-3.27,3.82-3.98,5.46-4.5,10.34,2.94,20.8,11.44,26.25,13.76,8.83,32.97,8.44,46.31-1,7.8-5.52,14.58-14.9,10.44-24.75-.81-1.92-3.95-4.99-4.1-5.93-.45-2.82,2.47-8.74,1.58-12.15,6.46-.7,12.17-3.36,16.14-8.61,7.78-10.29-3.4-11.19-11.45-10.45-3.07.28-5.73,1.77-8.76,1.99Z"
        style="fill:none;" />
    <path
        d="M81,36.49c3.03-.21,5.68-1.7,8.76-1.99,8.05-.74,19.23.15,11.45,10.45-3.97,5.26-9.67,7.91-16.14,8.61.9,3.42-2.03,9.33-1.58,12.15.15.94,3.3,4.01,4.1,5.93,4.15,9.86-2.63,19.23-10.44,24.75-13.34,9.44-32.55,9.83-46.31,1-8.5-5.45-15.94-15.91-11.44-26.25.71-1.64,3.92-5.13,3.98-5.46.29-1.47-2.44-9.63-1.97-12.1-7.37-.8-12.82-3-16.63-9.63-2.46-4.27-3.22-7.47,2.3-9.12,6.08-1.82,13.13-.74,18.91,1.66l-5.26-7.48c-2.89-3.82-2.46-18.04,3.52-18.04,3.31,0,3.17,3.76,4.32,6.2s2.51,4.52,4.76,6.24c5.59,4.25,6.07,1.73,11.75.42,4.27-.98,10.25-1.27,14.61-.78,2.53.28,8.03,2.95,9.48,2.82,1.81-.16,6.4-3.84,7.59-5.36,2.58-3.3,3.91-14.14,9.24-7.26,4.99,6.44.64,18.28-5,23.24ZM27.5,63c16.49-3.77,34.26-3.4,50.71.44,1.95-.48,1.95-11.22,1.81-13.21-1.19-16.46-14.32-23.86-29.79-22.75-18.91,1.36-26.98,18.32-22.73,35.52ZM38.4,65.65c-9.19.79-16.21,4.09-14.91,14.61,1.1,8.96,16.62,17.73,24.82,18.68,11.31,1.32,24.59-3.11,31.68-12.21,5.13-6.58,5-14.98-3.35-18.63-7.4-3.23-29.75-3.19-38.24-2.46Z" />
    <path
        d="M27.5,63c-4.25-17.2,3.82-34.16,22.73-35.52,15.47-1.11,28.59,6.29,29.79,22.75.14,1.99.14,12.73-1.81,13.21-16.44-3.84-34.22-4.21-50.71-.44ZM36.03,43.47c3.92,0,3.37-4,8.17-3.44,1.07.13,6.07,2.32,5.11-1.05-1.64-5.76-15.65-2.28-13.28,4.48ZM62.37,43.59c-6.57,1.36-4.22,17.74,3.3,12.83,5.21-3.41,2.18-13.96-3.3-12.83ZM42.86,46.6c-5.24,1.16-4.94,13.07,2.78,11.29,5.34-1.23,3.72-12.73-2.78-11.29Z"
        style="fill:none;" />
    <path
        d="M38.4,65.65c8.49-.73,30.84-.77,38.24,2.46,8.35,3.65,8.48,12.05,3.35,18.63-7.1,9.09-20.37,13.53-31.68,12.21-8.2-.96-23.71-9.72-24.82-18.68-1.3-10.52,5.72-13.82,14.91-14.61ZM36.62,71.12c-2.8,2.79-.12,11.75,1.6,14.91,4.55,8.36,14.31,12.31,22.93,7.37,5.92-3.4,11.83-11.94,10.24-19.04-1.28-5.71-7.16-1.12-9.9-.11-4.91,1.8-10.57,1.85-15.49,0-2.51-.94-7.16-5.35-9.39-3.12Z"
        style="fill:none;" />
    <path d="M62.37,43.59c5.48-1.14,8.51,9.42,3.3,12.83-7.52,4.91-9.87-11.46-3.3-12.83Z" />
    <path d="M42.86,46.6c6.5-1.43,8.12,10.07,2.78,11.29-7.72,1.77-8.02-10.14-2.78-11.29Z" />
    <path
        d="M36.03,43.47c-2.37-6.76,11.63-10.24,13.28-4.48.96,3.37-4.04,1.17-5.11,1.05-4.79-.57-4.24,3.43-8.17,3.44Z" />
    <path
        d="M36.62,71.12c2.23-2.23,6.88,2.18,9.39,3.12,4.92,1.85,10.58,1.8,15.49,0,2.74-1.01,8.62-5.6,9.9.11,1.59,7.1-4.32,15.65-10.24,19.04-8.62,4.94-18.38.99-22.93-7.37-1.72-3.16-4.4-12.11-1.6-14.91ZM44.53,86.53c-1.49,2.2,6.67,4.82,8.3,4.94,1.24.09,7.17-1.16,7.17-2.22-3.9-4.52-10.22-5.46-15.46-2.72Z" />
    <path
        d="M44.53,86.53c5.24-2.74,11.57-1.8,15.46,2.72,0,1.06-5.93,2.31-7.17,2.22-1.63-.12-9.79-2.74-8.3-4.94Z"
        style="fill:none;" />
</svg>