<?xml version="1.0" encoding="UTF-8"?>
<svg id="a" xmlns="http://www.w3.org/2000/svg" viewBox="0 0 108 114">
    <path
        d="M108,0v114H0V0h108ZM82,38.5l4.92-7.82c2.67-3.84,2.04-16.08-2.92-17.48-3.74-1.05-3.92,4.37-4.91,6.65-1.17,2.69-3.16,4.84-5.64,6.36-4.99,3.07-5.2.92-10.14-.27-6.14-1.48-11.82-1.26-17.92.21-2.03.49-4.68,2.16-6.53,1.77-1.23-.26-6-3.57-6.87-4.67-2.3-2.9-3.27-13.57-8.28-8.77-6.56,6.28-1.68,18.49,3.78,24.02-6.27-1.88-11.02-3.24-17.5-1.25s-6.13,5.35-2.41,10.41,8.97,7.42,15.39,7.86c-.01,2.55.25,5.14.58,7.67.18,1.39,1.34,4.06,1.23,5.07-.15,1.35-4.29,5.78-4.73,10.05-1.62,15.74,17.12,26.22,30.7,27.19,20.47,1.47,49.71-15.29,33.87-37.83,1.15-3.89,1.28-8.08,1.4-12.14,6.18-.55,11.46-2.37,15.46-7.28,5.32-6.55,5.11-11.3-4.24-12.23-5.23-.52-10.36.84-15.24,2.5Z"
        style="fill:none;" />
    <path
        d="M82,38.5c4.88-1.66,10.01-3.02,15.24-2.5,9.35.94,9.57,5.69,4.24,12.23-4,4.92-9.28,6.73-15.46,7.28-.13,4.07-.26,8.26-1.4,12.14,15.84,22.54-13.39,39.3-33.87,37.83-13.58-.98-32.32-11.46-30.7-27.19.44-4.26,4.58-8.69,4.73-10.05.11-1.01-1.04-3.68-1.23-5.07-.33-2.53-.6-5.11-.58-7.67-6.41-.44-11.54-2.62-15.39-7.86s-4.18-8.39,2.41-10.41,11.23-.63,17.5,1.25c-5.45-5.53-10.34-17.74-3.78-24.02,5.01-4.8,5.98,5.88,8.28,8.77.87,1.1,5.63,4.41,6.87,4.67,1.85.39,4.5-1.28,6.53-1.77,6.1-1.47,11.78-1.69,17.92-.21,4.94,1.19,5.15,3.34,10.14.27,2.48-1.53,4.47-3.67,5.64-6.36.99-2.27,1.18-7.7,4.91-6.65,4.96,1.4,5.59,13.64,2.92,17.48l-4.92,7.82ZM49.4,30.15c-19.01,1.96-25.77,23.7-18.96,39.5-13.98,13.42,2.52,27.55,16.54,30.13,12.6,2.32,30.03-1.58,35.62-14.43,3.16-7.25.77-10.88-3.48-16.66,7.42-22.9-4.8-41.1-29.72-38.53Z" />
    <path
        d="M49.4,30.15c24.92-2.56,37.14,15.64,29.72,38.53,4.24,5.78,6.63,9.41,3.48,16.66-5.59,12.85-23.02,16.75-35.62,14.43-14.02-2.58-30.52-16.71-16.54-30.13-6.81-15.8-.05-37.54,18.96-39.5ZM42.36,46.62c-3.21.67-9.22,7.01-7.15,9.92s4.73-3.66,6.76-4.31c6.04-1.93,5.39,7.15,9.06,4.56,1.74-5.69-2.32-11.49-8.67-10.17ZM71.82,49.18c-3.22-3.31-8.3-3.5-11.77-.38-1.56,1.4-5.27,7.64-2.22,8.65,2.66.87,3.44-4.36,6.14-5.23,5.7-1.82,5.93,6.16,9.02,4.56,2.65-1.37.35-6.03-1.18-7.6ZM70.37,68.56c-2.36,1.22-3.98,3.42-6.35,4.7-6.17,3.34-12.81,2.85-18.69-.85-1.53-.96-6.41-6.38-7.32-1.66-.66,3.43,3.46,14.84,5.78,17.69,4.82,5.92,14.33,6.37,20.16,1.75,5.22-4.14,5.55-12.59,8.84-18.19.77-1.58-.83-3.69-2.43-3.46Z"
        style="fill:none;" />
    <path
        d="M70.37,68.56c1.6-.23,3.2,1.88,2.43,3.46-3.29,5.6-3.62,14.05-8.84,18.19-5.83,4.62-15.34,4.17-20.16-1.75-2.32-2.85-6.44-14.27-5.78-17.69.91-4.72,5.79.7,7.32,1.66,5.88,3.69,12.52,4.19,18.69.85,2.37-1.28,3.99-3.48,6.35-4.7Z" />
    <path
        d="M71.82,49.18c1.52,1.57,3.83,6.23,1.18,7.6-3.09,1.6-3.32-6.38-9.02-4.56-2.7.86-3.49,6.1-6.14,5.23-3.05-1,.66-7.25,2.22-8.65,3.47-3.12,8.55-2.94,11.77.38Z" />
    <path
        d="M42.36,46.62c6.35-1.32,10.42,4.48,8.67,10.17-3.68,2.59-3.02-6.49-9.06-4.56-2.02.65-4.59,7.36-6.76,4.31s3.94-9.25,7.15-9.92Z" />
</svg>