<?xml version="1.0" encoding="UTF-8"?>
<svg id="a" xmlns="http://www.w3.org/2000/svg" viewBox="0 0 108 114">
    <path
        d="M108,0v114H0V0h108ZM79.5,32.99c4.94-5.12,7.23-10.49,6.49-17.74-.3-2.96-2.07-7.86-5.72-7.26-2.2.36-2.34,4.41-3.18,6.35-1.26,2.9-6.71,8.46-9.89,8.65-1.47.09-7.23-2.64-10.02-2.93-4.65-.49-9.88-.13-14.4.98-1.33.33-6.25,2.33-6.82,2.23-1.92-.36-6.01-4.15-7.18-5.79-1.52-2.13-2.89-8.2-3.99-9-3.04-2.22-5.74,2.75-6.45,5.13-2.37,7.95.99,13.79,5.66,19.9-5.57-1.71-14.95-3.7-20.17-.41-3.8,2.4-2.15,5.33-.23,8.57,3.44,5.79,9.85,8.48,16.4,8.85.13,1.72-.17,3.53.01,5.24s1.51,5.68,1.47,6.53c-.02.45-3.03,4.51-3.62,6.34-6.31,19.52,15.93,31.31,32.39,30.88,2.94-.08,9.08-1.92,11.02-1.78.87.06,2,1.31,3.09,1.69,8.07,2.78,14.44-.5,16.53-8.76.27-1.06-.07-2.27.22-3.28.2-.69,2.75-3.04,3.49-4.51,3.14-6.26,3.17-15.78-3.62-19.62,1.87-3.89,2.14-8.16,2.1-12.4.44-1.35,2.86-.65,4.13-.87,4.8-.84,9.39-3.86,12.01-7.99,3.47-5.45,3.24-8.63-3.6-10.32-5.9-1.46-10.44.22-16.11,1.36Z"
        style="fill:none;" />
    <path
        d="M79.5,32.99c5.67-1.14,10.22-2.82,16.11-1.36,6.84,1.69,7.06,4.87,3.6,10.32-2.62,4.13-7.21,7.15-12.01,7.99-1.27.22-3.68-.48-4.13.87.04,4.24-.24,8.51-2.1,12.4,6.79,3.84,6.77,13.36,3.62,19.62-.74,1.47-3.29,3.82-3.49,4.51-.29,1.01.05,2.22-.22,3.28-2.09,8.26-8.46,11.55-16.53,8.76-1.09-.37-2.22-1.63-3.09-1.69-1.94-.14-8.08,1.71-11.02,1.78-16.46.43-38.7-11.36-32.39-30.88.59-1.82,3.6-5.89,3.62-6.34.04-.85-1.3-4.88-1.47-6.53s.12-3.52-.01-5.24c-6.55-.37-12.96-3.06-16.4-8.85-1.92-3.23-3.57-6.17.23-8.57,5.22-3.29,14.59-1.29,20.17.41-4.67-6.12-8.02-11.95-5.66-19.9.71-2.37,3.41-7.35,6.45-5.13,1.1.81,2.47,6.87,3.99,9,1.17,1.64,5.26,5.44,7.18,5.79.57.11,5.49-1.9,6.82-2.23,4.52-1.1,9.75-1.46,14.4-.98,2.79.29,8.55,3.02,10.02,2.93,3.17-.19,8.62-5.75,9.89-8.65.84-1.94.98-5.99,3.18-6.35,3.65-.6,5.42,4.3,5.72,7.26.74,7.24-1.55,12.62-6.49,17.74ZM79.99,81c6.72-14.06-7.3-19.12-18.83-14.59-1.88.74-8.6,6.04-9.19,2.33-.46-2.91,5.98-6.3,8.41-7.1,3.91-1.29,8.29-1.28,12.38-1.16,1.32.04,3.11,1.09,3.98.03,1.51-1.84,1.46-12.51,1.18-15.19-2.76-26.41-45.82-27.48-52.19-3.31-1.91,7.23-1.87,15.11,1.74,21.77-2.11,3.31-5.35,4.7-5.94,9.03-2.27,16.64,23.82,23.91,36.45,20.71-2.03-4.41-3.01-8.94-.78-13.53s10.07-8.87,14.9-6.83c3.24,1.36,4.92,4.54,6.76,7.21.3.44-.08.92,1.11.65ZM66.5,77.5c-.79.67,5.8,5.58,3.77,8.52s-6.28-5.93-8.01-5.53c-5.61,6.22,2.93,17.39,10.24,14.25,8.05-3.46,2-18.91-6-17.24Z" />
    <path
        d="M79.99,81c-1.19.28-.8-.21-1.11-.65-1.84-2.68-3.52-5.85-6.76-7.21-4.83-2.03-12.68,2.28-14.9,6.83s-1.25,9.12.78,13.53c-12.63,3.21-38.72-4.07-36.45-20.71.59-4.33,3.84-5.72,5.94-9.03-3.62-6.66-3.65-14.54-1.74-21.77,6.38-24.16,49.44-23.09,52.19,3.31.28,2.69.33,13.35-1.18,15.19-.87,1.06-2.66.01-3.98-.03-4.09-.12-8.47-.13-12.38,1.16-2.43.8-8.88,4.19-8.41,7.1.59,3.71,7.31-1.59,9.19-2.33,11.53-4.53,25.55.53,18.83,14.59ZM38.9,36.61c-3.59.36-9.5,4.45-6.63,8.4,3.16-1.21,4.94-5.27,8.75-4.27,1.37.36,4.3,3.24,5.26,1.79,2.11-3.17-4.4-6.21-7.37-5.91ZM57.64,49.15c.86-.7,3.98-1.12,4.64-.18.82,1.17-.77,7.37,3.08,7.95,4.17.63,5.73-7.88,4.19-10.72-3.54-2.15-18.26-2.45-15.98,4.47,1.82,2.42,3.15-.78,4.07-1.52ZM45.62,50.62c.24-.4,3.69-1.9,1.65-3.62-2.37-1.99-4.62.86-6.04,1s-8.37-3.09-8.22,1.28c.06,1.81,3.5,1.06,4.54,2.43,1.21,1.61-.79,5.46,3.2,5.84,5.32.5,3.74-4.99,4.88-6.92Z"
        style="fill:none;" />
    <path
        d="M66.5,77.5c8-1.67,14.05,13.79,6,17.24-7.31,3.14-15.85-8.02-10.24-14.25,1.73-.4,5.95,8.53,8.01,5.53s-4.56-7.85-3.77-8.52Z"
        style="fill:none;" />
    <path
        d="M57.64,49.15c-.92.74-2.25,3.95-4.07,1.52-2.28-6.92,12.44-6.62,15.98-4.47,1.55,2.84-.02,11.35-4.19,10.72-3.85-.58-2.26-6.78-3.08-7.95-.66-.94-3.78-.52-4.64.18Z" />
    <path
        d="M45.62,50.62c-1.14,1.94.44,7.43-4.88,6.92-3.98-.38-1.98-4.23-3.2-5.84-1.04-1.37-4.48-.61-4.54-2.43-.15-4.37,6.79-1.13,8.22-1.28s3.67-2.99,6.04-1c2.05,1.72-1.41,3.22-1.65,3.62Z" />
    <path
        d="M38.9,36.61c2.97-.3,9.48,2.74,7.37,5.91-.96,1.45-3.88-1.43-5.26-1.79-3.81-.99-5.59,3.07-8.75,4.27-2.86-3.95,3.05-8.04,6.63-8.4Z" />
</svg>