<?xml version="1.0" encoding="UTF-8"?>
<svg id="a" xmlns="http://www.w3.org/2000/svg" viewBox="0 0 108 114">
    <path
        d="M108,0v114H0V0h108ZM86.33,8.67c-5.63-5.41-6.19,5.22-8.33,8.08-1.76,2.36-4.97,4.08-7.49,5.54-2.88-.69-5.44-2.07-8.4-2.64-5.09-.99-9.95-.92-15.02.18-1.84.4-6.71,2.57-7.74,2.54-3.09-.08-8.06-5.49-9.28-8.18-1.28-2.82-2.04-10.42-6.82-5.71-6.11,6.02-1.52,18.67,3.77,24.01-6.61-1.88-12.92-3.91-19.64-.88-8.12,3.66,2.58,14.56,7.87,16.41,2.56.89,5.11.95,7.71,1.54-.1,4.32.41,8.63,1.89,12.71-18.7,17.45,5.2,36.36,23.4,37.76,4.16.32,9.82-.74,13.46-.37,1.34.14,3.92,2.24,5.78,2.63,4.66.98,8.56-.63,10.62-4.93.59-1.23,1.02-3.99,1.55-4.7.32-.44,2.1-1.16,2.86-1.89,8.82-8.42,12.11-19.5,1.47-28.11.64-4.42,2.06-8.6,1.52-13.15,7.29.34,13.62-3.23,17.32-9.43,1.9-3.19,3.19-5.65-.79-7.84-5.63-3.09-14.2-1.04-20.02.77,5.38-5.13,10.51-18.38,4.33-24.32Z"
        style="fill:none;" />
    <path
        d="M86.33,8.67c6.18,5.94,1.06,19.2-4.33,24.32,5.82-1.81,14.4-3.86,20.02-.77,3.98,2.19,2.69,4.64.79,7.84-3.7,6.2-10.03,9.77-17.32,9.43.54,4.55-.88,8.73-1.52,13.15,10.65,8.61,7.35,19.69-1.47,28.11-.76.73-2.54,1.45-2.86,1.89-.53.71-.96,3.47-1.55,4.7-2.06,4.3-5.96,5.92-10.62,4.93-1.87-.39-4.44-2.5-5.78-2.63-3.64-.37-9.3.69-13.46.37-18.2-1.4-42.1-20.31-23.4-37.76-1.47-4.08-1.98-8.39-1.89-12.71-2.6-.58-5.15-.64-7.71-1.54-5.29-1.84-15.99-12.75-7.87-16.41,6.72-3.03,13.03-1,19.64.88-5.28-5.34-9.88-17.99-3.77-24.01,4.78-4.71,5.54,2.89,6.82,5.71s6.2,8.09,9.28,8.18c1.03.03,5.9-2.14,7.74-2.54,5.07-1.1,9.93-1.17,15.02-.18,2.97.57,5.52,1.95,8.4,2.64,2.52-1.46,5.73-3.19,7.49-5.54,2.13-2.85,2.7-13.49,8.33-8.08ZM49.89,24.14c-16.44,1.86-24.78,16.3-21.76,31.98.3,1.54.59,4.45,2.38,4.19,2.79-.4,5.7-1.57,8.75-1.8,7.9-.6,16.09.59,23.97,1.01,5.31.28,10.6-.62,15.79,1.27,7.43-21.65-6.01-39.26-29.13-36.65ZM78.5,87c3.51-1.04,6.42-6.47,6.86-9.88,1.28-9.78-7.65-12.64-15.6-13.14-9.19-.58-24.09-1.34-32.96-.42-8.06.84-15.7,6.58-12.95,15.33,3.76,11.97,22.77,18.21,34.14,16.1l-2.99-5.25c-2.9-.63-10.83-.17-11.43-4.1-.74-4.82,5.68-1.44,7.72-1.19,4.53.55,14.42-2.07,17.2-5.82,1.71-2.3-.83-6.72,2.76-7.13,4.04-.46,2.87,5.73,3.47,8.02s3.88,4.65,3.77,7.48ZM61,88.01c.54,3.85,4.78,9.77,9.14,9.38,7.86-.69,3.38-14.48-.18-13.66-2.07.47-5.92,4.6-8.95,4.28Z" />
    <path
        d="M49.89,24.14c23.12-2.61,36.56,15,29.13,36.65-5.19-1.88-10.48-.98-15.79-1.27-7.89-.42-16.07-1.62-23.97-1.01-3.04.23-5.96,1.4-8.75,1.8-1.79.26-2.09-2.65-2.38-4.19-3.02-15.68,5.32-30.13,21.76-31.98ZM42.38,35.13c-3.19.44-7.39,3.29-7.86,6.65s.86,3.1,2.75,1.23c2.46-2.45,2.79-4.19,7-4.04,1.36.05,6.4,1.55,4.87-1.82-1.1-2.42-4.53-2.32-6.76-2.02ZM60.17,42.17c-1.69,1.82-4.68,8.01-1.68,9.6,3.38,1.79,1.68-6.99,6.74-6.81,4.25.15,3.84,5.33,5.47,8.09,5.49,2.08,2.83-7.73,1.22-10.22-2.71-4.19-8.47-4.19-11.74-.66ZM45.38,44.08c-7,1.16-4.85,15.27,2.81,11.35,5.53-2.84,2.07-12.16-2.81-11.35Z"
        style="fill:none;" />
    <path
        d="M78.5,87c.11-2.83-3.15-5.1-3.77-7.48s.57-8.48-3.47-8.02c-3.59.41-1.05,4.83-2.76,7.13-2.78,3.75-12.68,6.36-17.2,5.82-2.05-.25-8.46-3.63-7.72,1.19.6,3.93,8.53,3.47,11.43,4.1l2.99,5.25c-11.36,2.1-30.38-4.14-34.14-16.1-2.75-8.75,4.89-14.49,12.95-15.33,8.87-.93,23.77-.17,32.96.42,7.95.51,16.88,3.37,15.6,13.14-.45,3.41-3.35,8.84-6.86,9.88ZM38.87,67.59c-5.41,1.12-5.11,13.72,3.28,11.8,5.6-1.28,2.59-13.02-3.28-11.8Z"
        style="fill:none;" />
    <path
        d="M61,88.01c3.03.32,6.89-3.81,8.95-4.28,3.56-.82,8.04,12.97.18,13.66-4.35.38-8.6-5.53-9.14-9.38Z"
        style="fill:none;" />
    <path
        d="M60.17,42.17c3.28-3.53,9.03-3.53,11.74.66,1.61,2.48,4.27,12.3-1.22,10.22-1.63-2.76-1.21-7.94-5.47-8.09-5.06-.18-3.36,8.6-6.74,6.81-3.01-1.59-.01-7.78,1.68-9.6Z" />
    <path d="M45.38,44.08c4.88-.81,8.34,8.51,2.81,11.35-7.66,3.93-9.81-10.19-2.81-11.35Z" />
    <path
        d="M42.38,35.13c2.22-.3,5.66-.4,6.76,2.02,1.53,3.36-3.52,1.86-4.87,1.82-4.21-.14-4.54,1.6-7,4.04-1.89,1.88-3.22,2.11-2.75-1.23s4.68-6.22,7.86-6.65Z" />
    <path d="M38.87,67.59c5.87-1.21,8.88,10.53,3.28,11.8-8.39,1.91-8.68-10.69-3.28-11.8Z" />
</svg>