<?xml version="1.0" encoding="UTF-8"?>
<svg id="a" xmlns="http://www.w3.org/2000/svg" viewBox="0 0 108 114">
    <path
        d="M108,0v114H0V0h108ZM81,35l4.43-6.81c2.84-4.35,3.53-17.13-2.42-18.98-3.81-1.18-3.75,3.72-4.63,5.93-1.76,4.44-5.29,7.46-9.64,9.33-7.6-3.34-15.24-4.2-23.35-2.32-1.34.31-5.8,2.23-6.44,2.11-2.95-.55-7.38-5.09-8.73-7.74-1.47-2.89-2.89-11.27-7.73-5.26-3.45,4.28-2.35,12.61.41,17.08l4.58,6.67c-5.44-2.4-12.76-3.66-18.48-1.74-6.54,2.2-4.78,6-1.43,10.4,3.83,5.03,9.06,7.61,15.41,7.84l1.52,11.72c-15,16.99,4.31,36.04,21.87,39.14,17.73,3.12,45.84-8.66,41.89-30.39-.65-3.58-4.63-7.12-4.79-8.25-.18-1.34.77-3.11.95-4.53.23-1.8.22-6.09.63-7.37.44-1.38,2.9-.61,4.14-.86,5.43-1.08,10.83-5.9,13.2-10.8,1.39-2.87,1.95-4.44-1.06-6.26-5.7-3.45-14.64-1.64-20.35,1.1Z"
        style="fill:none;" />
    <path
        d="M81,35c5.71-2.75,14.64-4.55,20.35-1.1,3.01,1.82,2.45,3.39,1.06,6.26-2.37,4.9-7.77,9.72-13.2,10.8-1.24.25-3.7-.52-4.14.86-.41,1.29-.4,5.58-.63,7.37-.18,1.43-1.13,3.2-.95,4.53.15,1.13,4.13,4.67,4.79,8.25,3.95,21.73-24.16,33.51-41.89,30.39-17.57-3.1-36.88-22.15-21.87-39.14l-1.52-11.72c-6.34-.23-11.58-2.81-15.41-7.84-3.35-4.4-5.11-8.2,1.43-10.4,5.72-1.93,13.04-.66,18.48,1.74l-4.58-6.67c-2.77-4.47-3.86-12.8-.41-17.08,4.83-6.01,6.26,2.37,7.73,5.26,1.35,2.66,5.78,7.2,8.73,7.74.63.12,5.09-1.8,6.44-2.11,8.11-1.88,15.76-1.03,23.35,2.32,4.34-1.87,7.87-4.89,9.64-9.33.88-2.22.82-7.12,4.63-5.93,5.94,1.85,5.26,14.63,2.42,18.98l-4.43,6.81ZM79,61c5.25-20.66-7.04-36.66-28.74-34.99-15.61,1.2-23.48,15.06-22.25,29.74.08.91.55,4.62,1.25,4.76,1.13-.32,2.09-.96,3.23-1.25,10.45-2.66,26.9-2.31,37.62-.61,3.05.48,5.94,1.51,8.88,2.36ZM49.9,62.65c-8.08.08-21.94-.54-25.13,8.87-3.9,11.48,9.66,22.13,19.34,25.13,11.66,3.6,27.58-.22,35.38-9.9,5.35-6.64,6.19-14.78-1.24-20.24-5.91-4.34-20.91-3.93-28.35-3.85Z" />
    <path
        d="M79,61c-2.94-.86-5.83-1.88-8.88-2.36-10.72-1.7-27.17-2.05-37.62.61-1.15.29-2.11.93-3.23,1.25-.71-.14-1.18-3.85-1.25-4.76-1.23-14.68,6.64-28.54,22.25-29.74,21.7-1.66,33.99,14.33,28.74,34.99ZM42.37,42.61c-3.87.75-6.27,6.53-4.11,9.89l1.26.27c2.06-5.95,5.76-5.59,7.98,0,5.37,1.07,2.19-6.1.23-8.24-1.41-1.54-3.26-2.33-5.35-1.92ZM62.85,43.61c-2.58.58-5.79,4.5-5.79,7.14,0,1.22,1.17,4.65,2.95,3.52,1.1-1.89,2.01-5.82,4.73-5.83,3.32,0,3.11,5.49,5.09,6,2.42.12,2.32-2.35,2.16-4.2-.41-4.8-4.43-7.71-9.15-6.64Z"
        style="fill:none;" />
    <path
        d="M49.9,62.65c7.45-.08,22.44-.48,28.35,3.85,7.43,5.45,6.59,13.6,1.24,20.24-7.8,9.68-23.72,13.51-35.38,9.9-9.68-2.99-23.24-13.65-19.34-25.13,3.2-9.41,17.06-8.78,25.13-8.87ZM38.89,70.09c-6.69.76-2.29,12.85.41,16.36,7.93,10.34,21.64,9.61,29.7-.22,3.4-4.15,6.93-12.22,1.15-15.63-7.8.02-15.6.7-23.41.41-2.23-.08-5.79-1.16-7.84-.93Z"
        style="fill:none;" />
    <path
        d="M62.85,43.61c4.71-1.07,8.74,1.85,9.15,6.64.16,1.85.26,4.32-2.16,4.2-1.99-.51-1.77-6-5.09-6-2.72,0-3.63,3.93-4.73,5.83-1.78,1.12-2.95-2.31-2.95-3.52,0-2.65,3.21-6.56,5.79-7.14Z" />
    <path
        d="M42.37,42.61c2.09-.41,3.94.39,5.35,1.92,1.96,2.14,5.14,9.31-.23,8.24-2.22-5.59-5.92-5.95-7.98,0l-1.26-.27c-2.16-3.35.24-9.13,4.11-9.89Z" />
    <path
        d="M38.89,70.09c2.05-.23,5.61.85,7.84.93,7.82.29,15.61-.4,23.41-.41,5.78,3.41,2.25,11.48-1.15,15.63-8.06,9.83-21.77,10.56-29.7.22-2.69-3.51-7.1-15.6-.41-16.36ZM63.5,84.51c-4.78-1.81-9.36-2.79-14.35-1.11-.79.27-4.38,1.93-4.14,2.85,4.8,5.29,15.82,5.53,18.5-1.73Z" />
    <path
        d="M63.5,84.51c-2.68,7.27-13.69,7.03-18.5,1.73-.23-.92,3.35-2.58,4.14-2.85,4.99-1.68,9.57-.7,14.35,1.11Z"
        style="fill:none;" />
</svg>