<?xml version="1.0" encoding="UTF-8"?>
<svg id="a" xmlns="http://www.w3.org/2000/svg" viewBox="0 0 108 114">
    <path
        d="M108,0v114H0V0h108ZM76.82,17.32c-.93.97-5.41,4.05-6.61,4.18-1.47.16-6.79-1.96-9.1-2.35-8.17-1.37-15.67-.3-23.15,3.13-3.65-2.16-7.31-4.91-9.05-8.93-1.17-2.7-2.22-10.58-6.9-6.1-6.57,6.28-1.28,19.46,4.5,24.74-6.66-2.2-13.71-4.61-20.5-1.25-4.41,2.18-3.13,5.05-1.09,8.6,3.58,6.23,10.41,9.9,17.6,9.65-.35,4.38.42,8.47,1.38,12.7-3.04,2.52-6.5,4.55-7.92,8.52-4.53,12.67,7.16,24.32,18.97,26.35,1.04,14.27,17.25,16.99,23.9,4.52,15.47-.38,35.22-8.63,31.35-27.51-.87-4.25-3.91-6-6.14-9.29,1.38-5.01,2.36-10.05,1.96-15.28,7.56.17,13.52-3.66,17.09-10.17,2.48-4.53,3.07-7.16-2.6-9.07-6.11-2.05-12.72.04-18.48,2.24-.38-.37,3.6-4.83,4.09-5.65,2.54-4.27,3.78-9.82,2.56-14.75-.76-3.07-4.75-8.07-7.39-4.07-1.83,2.78-1.24,6.43-4.45,9.8Z"
        style="fill:none;" />
    <path
        d="M76.82,17.32c3.21-3.37,2.61-7.02,4.45-9.8,2.64-4,6.63,1,7.39,4.07,1.22,4.93-.02,10.48-2.56,14.75-.49.82-4.47,5.28-4.09,5.65,5.76-2.2,12.37-4.29,18.48-2.24,5.67,1.91,5.08,4.54,2.6,9.07-3.57,6.51-9.52,10.33-17.09,10.17.4,5.23-.58,10.28-1.96,15.28,2.23,3.3,5.27,5.04,6.14,9.29,3.87,18.88-15.88,27.12-31.35,27.51-6.65,12.48-22.86,9.75-23.9-4.52-11.81-2.03-23.5-13.68-18.97-26.35,1.42-3.97,4.87-6.01,7.92-8.52-.97-4.23-1.74-8.32-1.38-12.7-7.19.25-14.02-3.42-17.6-9.65-2.04-3.55-3.32-6.42,1.09-8.6,6.8-3.36,13.84-.95,20.5,1.25-5.77-5.29-11.07-18.46-4.5-24.74,4.69-4.48,5.73,3.4,6.9,6.1,1.75,4.01,5.41,6.77,9.05,8.93,7.48-3.43,14.98-4.5,23.15-3.13,2.32.39,7.63,2.51,9.1,2.35,1.21-.13,5.69-3.2,6.61-4.18ZM79.5,63c4.48-15.73,1.42-33.91-16.68-38.07-14.83-3.4-29.73.43-34.28,16.35-1.93,6.76-2.19,13.06.52,19.65,2.03.28,4.15-.15,6.18.07,2.25.25,11.9,2.33,10.73,5.69-2.37,2.28-5.71-.24-8.55-.87-6.18-1.36-13.8-.86-16.51,5.83-3.78,9.29,6.09,17.4,13.85,20.33l4.73-9.74c-.06-.86-7.17-2.64-6.73-6.31.25-2.09,1.92-2.93,3.89-2.33.98.3,2.05,2.16,3.18,2.83,5.92,3.51,19.3,4.08,25.52,1.16,1.44-.67,5.42-4.55,6.58-1.26,1.39,3.97-5.46,6.3-8.33,7.26l-3.09,12.4c7.64-1.05,16.38-2.33,21.49-8.76,8.27-10.42.53-23.13-12.5-19.5-2.17.61-6.49,3.98-8.04,2.05-1.39-1.96.95-4.06,2.58-5,4.33-2.48,10.68-2.85,15.46-1.79ZM49.5,84c-4.91-.57-5.9-1.21-8.27,3.48-2.54,5.03-3.58,14.91,3.63,16.4,10.24,2.12,11.67-12.44,13.64-19.38-1.36.2-3.9-.43-5,.24-1.17.71-3.25,7.72-4.56,9.44s-2.25.9-2.47-.92c-.43-3.69,1.69-6.13,3.03-9.27Z" />
    <path
        d="M79.5,63c-4.78-1.06-11.13-.69-15.46,1.79-1.63.94-3.97,3.05-2.58,5,1.55,1.93,5.86-1.45,8.04-2.05,13.03-3.63,20.77,9.08,12.5,19.5-5.11,6.43-13.85,7.71-21.49,8.76l3.09-12.4c2.86-.96,9.72-3.29,8.33-7.26-1.16-3.29-5.14.58-6.58,1.26-6.22,2.91-19.59,2.35-25.52-1.16-1.12-.67-2.19-2.53-3.18-2.83-1.97-.6-3.65.24-3.89,2.33-.44,3.68,6.67,5.45,6.73,6.31l-4.73,9.74c-7.76-2.93-17.62-11.04-13.85-20.33,2.72-6.69,10.34-7.18,16.51-5.83,2.84.62,6.17,3.15,8.55.87,1.18-3.36-8.48-5.44-10.73-5.69-2.03-.22-4.15.21-6.18-.07-2.71-6.59-2.45-12.89-.52-19.65,4.55-15.92,19.45-19.76,34.28-16.35,18.1,4.15,21.16,22.34,16.68,38.07ZM34.5,43.5c2.32.28,4.47-2.01,6.77-1.93,1.39.05,4.77,3.19,5.25.17.88-5.45-13.29-4.99-12.02,1.76ZM65.87,43.62c-7.54,1.41-8.62,17.65,1.78,15.27,5.39-1.23,8.87-17.26-1.78-15.27ZM40.85,47.61c-3.4,1.01-4.47,11.15,1.91,11.43,9.28.41,6.65-13.96-1.91-11.43Z"
        style="fill:none;" />
    <path
        d="M49.5,84c-1.34,3.14-3.46,5.57-3.03,9.27.21,1.82,1.22,2.56,2.47.92s3.39-8.73,4.56-9.44c1.11-.67,3.65-.04,5-.24-1.96,6.94-3.39,21.5-13.64,19.38-7.21-1.49-6.17-11.37-3.63-16.4,2.36-4.69,3.36-4.05,8.27-3.48Z"
        style="fill:none;" />
    <path d="M65.87,43.62c10.64-1.99,7.17,14.04,1.78,15.27-10.4,2.38-9.32-13.86-1.78-15.27Z" />
    <path d="M40.85,47.61c8.55-2.53,11.19,11.83,1.91,11.43-6.37-.28-5.3-10.42-1.91-11.43Z" />
    <path
        d="M34.5,43.5c-1.26-6.76,12.9-7.21,12.02-1.76-.49,3.02-3.86-.12-5.25-.17-2.3-.08-4.45,2.22-6.77,1.93Z" />
</svg>