<?xml version="1.0" encoding="UTF-8"?>
<svg id="a" xmlns="http://www.w3.org/2000/svg" viewBox="0 0 108 114">
    <path 
        d="M108,0v114H0V0h108ZM81,39.5c.91-2.24,2.89-3.4,4.08-5.66,2.55-4.81,3.81-13.86.14-18.32-4.56-5.55-5.48,3.95-6.96,6.5s-6.26,7.13-9.1,7.37c-.6.05-3.67-1.53-4.96-1.85-6.01-1.5-10.66-1.94-16.83-.91-2.38.4-7.75,2.62-9.5,2.28-3.58-.7-7.18-4.6-8.8-7.73-1.28-2.48-2.39-9.45-6.55-5.91-3.68,3.13-3.07,13.98-.45,17.91l3.93,5.82c-3.25.26-6.07-1.62-9.31-1.93s-7.7.17-10.54,1.83c-4.03,2.36-2.74,4.22-.86,7.56,3.53,6.26,8.8,8.61,15.88,9.12l.77.73c-.08,4.59.77,9.06,2.08,13.42-2.46,3.17-4.57,5.26-5,9.52-3.3,32.19,58.81,36.32,68.88,7.88,1.5-4.23,1.42-8.09-.7-12.08-1.17-2.2-3.13-3.2-4.2-5.32,1.37-4.51,2.18-9.16,2.08-13.92l.75-.75c7.28.53,14.44-4.12,17.13-10.87,3.09-7.74-8.71-7.9-13.57-7.07-2.91.5-5.45,2.15-8.37,2.37Z"
        style="fill:none;" />
    <path stroke="black" fill="black"
        d="M81,39.5c2.92-.22,5.46-1.87,8.37-2.37,4.87-.83,16.66-.67,13.57,7.07-2.69,6.75-9.85,11.4-17.13,10.87l-.75.75c.1,4.76-.71,9.4-2.08,13.92,1.07,2.12,3.03,3.13,4.2,5.32,2.12,3.99,2.2,7.85.7,12.08-10.07,28.43-72.19,24.31-68.88-7.88.44-4.26,2.54-6.35,5-9.52-1.3-4.36-2.16-8.83-2.08-13.42l-.77-.73c-7.08-.51-12.35-2.86-15.88-9.12-1.88-3.34-3.17-5.2.86-7.56,2.84-1.67,7.32-2.15,10.54-1.83s6.06,2.19,9.31,1.93l-3.93-5.82c-2.62-3.93-3.23-14.78.45-17.91,4.17-3.54,5.27,3.43,6.55,5.91,1.62,3.13,5.23,7.03,8.8,7.73,1.75.34,7.13-1.88,9.5-2.28,6.17-1.03,10.83-.59,16.83.91,1.29.32,4.35,1.9,4.96,1.85,2.84-.25,7.66-4.92,9.1-7.37s2.4-12.04,6.96-6.5c3.66,4.45,2.4,13.5-.14,18.32-1.2,2.26-3.18,3.43-4.08,5.66ZM48.89,30.64c-15.4,1.84-24.34,14.98-22.83,30.05.1,1.02,1.32,6.8,1.69,7.32.69.98,5.59-.75,7.07-.94,14.37-1.89,29.51-1.49,43.71,1.21,2.73-4.77,2.65-10.7,1.97-16.02-2.06-16-16.45-23.43-31.6-21.62ZM50.91,70.11c-6.03.08-17.32.23-22.57,2.98-8.14,4.26-5.11,15.17.4,20.43,12,11.45,35.31,11.05,48,.97,8.4-6.67,11.7-19.25-1.34-22.64-6.35-1.65-17.72-1.83-24.49-1.74Z" />
    <path stroke="black"
        d="M50.91,70.11c6.77-.09,18.14.09,24.49,1.74,13.04,3.39,9.74,15.97,1.34,22.64-12.7,10.08-36,10.48-48-.97-5.51-5.26-8.54-16.16-.4-20.43,5.25-2.75,16.54-2.9,22.57-2.98ZM39.87,77.08c-5.09.92-4.45,11.76.84,11.42s5.03-12.48-.84-11.42ZM66.36,77.6c-3.94,1.18-3.8,9.44.12,10.68,6.41,2.03,7.05-12.83-.12-10.68Z"
        style="fill:none;" />
    <path stroke="black"
        d="M48.89,30.64c15.16-1.81,29.54,5.61,31.6,21.62.68,5.31.76,11.25-1.97,16.02-14.2-2.7-29.34-3.09-43.71-1.21-1.48.19-6.38,1.92-7.07.94-.36-.52-1.58-6.3-1.69-7.32-1.51-15.07,7.43-28.21,22.83-30.05ZM42.39,43.6c-8.45.66-13.18,11.89-6.67,17.92,8.78,8.13,20.68-2.53,15.71-12.71-1.58-3.23-5.44-5.49-9.04-5.21ZM62.87,44.62c-11.02,1.88-9.77,21.93,3.33,20.34,12.68-1.54,10.25-22.65-3.33-20.34Z"
        style="fill:none;" />
    <path stroke="black" fill="black" d="M39.87,77.08c5.87-1.06,6.2,11.08.84,11.42s-5.93-10.5-.84-11.42Z" />
    <path stroke="black" fill="black" d="M66.36,77.6c7.16-2.14,6.52,12.72.12,10.68-3.91-1.24-4.05-9.51-.12-10.68Z" />
    <path stroke="black"  fill="black"
        d="M42.39,43.6c3.6-.28,7.46,1.98,9.04,5.21,4.97,10.18-6.93,20.84-15.71,12.71-6.51-6.03-1.79-17.26,6.67-17.92ZM38,58c5.29,7.5,14.89-2.24,9.52-8.27-3.06-3.43-9.94-.96-8.51.26,6.91-.9,5.68,9.33-1,8.01Z" />
    <path stroke="black" fill="black"
        d="M62.87,44.62c13.58-2.32,16.02,18.8,3.33,20.34-13.1,1.59-14.36-18.46-3.33-20.34ZM68,48.5c-15.7-1.83-8.12,21.86,3,9.24-7.16.64-8.13-5.46-3-9.24Z" />
    <path stroke="black" fill="black"
        d="M38,58c6.68,1.32,7.91-8.9,1-8.01-1.43-1.23,5.46-3.69,8.51-.26,5.38,6.03-4.22,15.77-9.52,8.27Z"
        style="fill:none;" />
    <path stroke="black" d="M68,48.5c-5.14,3.79-4.17,9.88,3,9.24-11.12,12.62-18.7-11.07-3-9.24Z" style="fill:none;" />
</svg>