<?xml version="1.0" encoding="UTF-8"?>
<svg id="a" xmlns="http://www.w3.org/2000/svg" viewBox="0 0 108 114">
    <path
        d="M108,0v114H0V0h108ZM28.87,9.12c-3.67-3.96-7.11,3.94-7.4,7.11-.68,7.45,2.02,12.23,6.52,17.77-5.95-1.9-10.72-3.33-17.02-1.76-5.62,1.4-6.84,3.35-4.18,8.71,3.12,6.29,9.76,9.87,16.67,10.08l2.02,13.22c-1.71,2.68-3.87,3.87-4.86,7.15-2.36,7.81,1.06,16.02,7.4,20.82,1.39,1.05,7.43,3.81,7.71,4.29.44.75.44,3.23,1.16,4.84,3.14,6.99,12.64,8.45,18.76,4.58,1.7-1.08,4.07-4.58,5.34-5.16,2.01-.9,7.17-1.12,9.99-2.01,11.32-3.57,24.79-15.44,18.93-28.44-1.24-2.75-3.48-4.12-4.94-6.58,1.21-4.31,2.36-8.71,2.01-13.24,6.6,1.63,19.41-8.18,18.51-14.72-.81-5.92-18.64-4.22-22.51-1.78-.43-.43,2.97-4.12,3.41-4.84,3.06-5.03,5.62-15.43.55-19.87-4.56-4.01-5.08,2.33-6.07,4.85-1.81,4.55-5.26,7.4-9.72,9.25-6.82-2.86-14.46-4.02-21.79-2.76-2.7.46-8.49,3.17-10.38,2.66-3.39-.91-7.31-5.77-8.59-8.94-.53-1.3-.88-4.51-1.53-5.22Z"
        style="fill:none;" />
    <path
        d="M28.87,9.12c.66.71,1.01,3.92,1.53,5.22,1.28,3.17,5.2,8.03,8.59,8.94,1.89.51,7.68-2.2,10.38-2.66,7.33-1.25,14.97-.09,21.79,2.76,4.46-1.85,7.91-4.7,9.72-9.25,1-2.52,1.51-8.86,6.07-4.85,5.06,4.44,2.5,14.84-.55,19.87-.44.72-3.84,4.41-3.41,4.84,3.86-2.45,21.7-4.14,22.51,1.78.89,6.54-11.91,16.35-18.51,14.72.35,4.53-.79,8.93-2.01,13.24,1.47,2.45,3.7,3.82,4.94,6.58,5.86,13-7.61,24.87-18.93,28.44-2.82.89-7.98,1.11-9.99,2.01-1.27.57-3.64,4.08-5.34,5.16-6.12,3.87-15.62,2.41-18.76-4.58-.72-1.62-.72-4.09-1.16-4.84-.28-.48-6.32-3.24-7.71-4.29-6.35-4.8-9.76-13.01-7.4-20.82.99-3.27,3.15-4.47,4.86-7.15l-2.02-13.22c-6.92-.21-13.55-3.79-16.67-10.08-2.66-5.36-1.45-7.31,4.18-8.71,6.29-1.56,11.06-.14,17.02,1.76-4.5-5.54-7.2-10.31-6.52-17.77.29-3.17,3.73-11.06,7.4-7.11ZM80.48,61.99c4.51-16.09-.94-33.88-19.29-36.43-16.76-2.32-31.36,5.21-32.63,23.25-.13,1.85.44,13.45,2.17,13.61,4.38-1.59,9.82-2.21,14.49-2.45,11.46-.59,24.05-.3,35.25,2.01ZM64,95c9.59-.99,23.61-8.78,21.87-20.13-1.47-9.61-14.56-10-22.13-10.36s-26.17-.4-32.94,2.55c-12.02,5.25-4.69,20.37,4.92,23.46,1.26-3.67,2.59-7.31,5.77-9.77-3.48-1-8.17-4.06-6.89-8.39.36-1.22,2.19-2.43,3.41-1.62,2.44,7.42,11.35,6.23,17.59,5.12,3.51-.62,15.7-5.21,17.91-4.11,4.26,2.14-2.16,11.66-4.02,13.99-2.45,3.06-5.64,4.41-5.48,9.26ZM51.5,81.5c-12.72.3-17.11,23.15-1.29,20.95,5.29-.74,7.08-5.05,9.29-9.21-3.82.12-6.2,3.1-10.17.68-5.03-3.08,1.92-8.58,2.17-12.42Z" />
    <path
        d="M80.48,61.99c-11.2-2.31-23.79-2.6-35.25-2.01-4.67.24-10.12.86-14.49,2.45-1.73-.17-2.3-11.76-2.17-13.61,1.27-18.04,15.87-25.58,32.63-23.25,18.34,2.54,23.8,20.34,19.29,36.43ZM42.36,38.12c-2.84.59-9.9,7.66-7.1,10.88,1.89.57,3.69-4.35,4.98-5.5,1.16-1.04,3.81-2.21,5.38-1.9,1.23.24,5.65,3.45,4.28-1.24-.72-2.45-5.47-2.67-7.54-2.24ZM68.35,55.84c3.76-3.43,3.61-14.42-2.6-14.87-10.22-.74-5.21,21.99,2.6,14.87ZM45.88,46.09c-5.51.46-5.86,13.84,2.1,11.13,6.01-2.04,3.41-11.6-2.1-11.13Z"
        style="fill:none;" />
    <path
        d="M64,95c-.15-4.85,3.03-6.2,5.48-9.26,1.87-2.33,8.29-11.85,4.02-13.99-2.2-1.11-14.4,3.49-17.91,4.11-6.24,1.11-15.15,2.3-17.59-5.12-1.21-.81-3.05.41-3.41,1.62-1.27,4.34,3.41,7.39,6.89,8.39-3.18,2.46-4.51,6.1-5.77,9.77-9.61-3.09-16.94-18.21-4.92-23.46,6.76-2.95,25.18-2.92,32.94-2.55s20.66.75,22.13,10.36c1.73,11.35-12.28,19.13-21.87,20.13Z"
        style="fill:none;" />
    <path
        d="M53.08,80.75c-.25,3.84-7.2,9.34-2.17,12.42,3.97,2.43,10.44-15.47,15.43-13.33.59,4.28-11.87,23.15-17.16,23.88-15.82,2.2-8.82-22.67,3.9-22.97Z"
        style="fill:none;" />
    <path d="M68.35,55.84c-7.81,7.12-12.82-15.62-2.6-14.87,6.22.45,6.36,11.45,2.6,14.87Z" />
    <path d="M45.88,46.09c5.52-.47,8.11,9.09,2.1,11.13-7.96,2.71-7.61-10.67-2.1-11.13Z" />
    <path
        d="M42.36,38.12c2.07-.43,6.83-.21,7.54,2.24,1.37,4.69-3.05,1.48-4.28,1.24-1.57-.31-4.22.86-5.38,1.9-1.28,1.15-3.09,6.07-4.98,5.5-2.8-3.22,4.26-10.29,7.1-10.88Z" />
</svg>