<?xml version="1.0" encoding="UTF-8"?>
<svg id="a" xmlns="http://www.w3.org/2000/svg" viewBox="0 0 108 114">
    <path
        d="M108,0v114H0V0h108ZM81.5,32l4.92-7.32c2.68-4.8,3.2-12.46-.67-16.69-4.99-5.46-5.67,1.2-7.02,4.5-1.78,4.35-5.53,7.24-9.57,9.4-7.06-3.65-15.52-4.3-23.29-2.76-1.72.34-6.93,2.68-7.42,2.62-2.84-.38-7.45-4.13-8.74-6.73-1.2-2.4-1.68-9.6-5.27-9.29-6.69.57-6.31,14.99-3.22,19.29l4.77,6.98c-5.29-2.61-16.17-4.17-20.97-.23-2.9,2.38-.55,6.24,1.08,8.88,3.37,5.48,8.66,8.13,15.08,7.92l.75.75c-.18,4.66.49,8.96,1.97,13.36-9.99,8.55-7.67,21.46,1.59,29.57,14.81,12.98,45.66,14.01,59.26-1.25,7.66-8.59,8.34-21.39-1.71-28.33,1.2-4.48,2.33-8.98,1.95-13.67,7.19.28,14.18-3.93,17.41-10.34,1.51-2.98,2.4-5.47-.74-7.58-5.18-3.48-14.65-.96-20.16.92Z"
        style="fill:none;" />
    <path
        d="M81.5,32c5.52-1.88,14.98-4.4,20.16-.92,3.14,2.11,2.25,4.6.74,7.58-3.24,6.4-10.23,10.62-17.41,10.34.38,4.69-.75,9.19-1.95,13.67,10.05,6.95,9.37,19.74,1.71,28.33-13.6,15.26-44.45,14.23-59.26,1.25-9.27-8.12-11.58-21.03-1.59-29.57-1.48-4.4-2.15-8.7-1.97-13.36l-.75-.75c-6.42.21-11.71-2.43-15.08-7.92-1.62-2.64-3.97-6.5-1.08-8.88,4.81-3.94,15.68-2.38,20.97.23l-4.77-6.98c-3.09-4.3-3.47-18.72,3.22-19.29,3.6-.31,4.08,6.89,5.27,9.29,1.3,2.6,5.9,6.35,8.74,6.73.49.07,5.7-2.28,7.42-2.62,7.77-1.54,16.22-.89,23.29,2.76,4.04-2.16,7.79-5.05,9.57-9.4,1.35-3.3,2.02-9.96,7.02-4.5,3.87,4.23,3.35,11.89.67,16.69l-4.92,7.32ZM47.89,23.64c-18.11,2.17-24.6,19.85-19.65,35.87.52,1.68,2.03,2.99,1.78,4.71-.21,1.44-4.87,3.62-6.29,6.25-5.3,9.79,5.29,19.43,13.44,23.11,11.95,5.41,27.34,5.46,38.68-1.49,14.11-8.64,12.8-26.36-5.11-28.09-8.09-.78-16.48-.27-24.49,1.04-4.87-1.96-1.54-3.88,1.83-4.71,9.38-2.33,20.8-1.67,30.1.63,2.42-4.49,2.57-11.6,1.69-16.59-2.92-16.38-16.33-22.62-31.98-20.74Z" />
    <path
        d="M47.89,23.64c15.65-1.88,29.07,4.36,31.98,20.74.89,4.99.74,12.1-1.69,16.59-9.3-2.3-20.72-2.96-30.1-.63-3.37.84-6.7,2.75-1.83,4.71,8.01-1.31,16.41-1.82,24.49-1.04,17.91,1.73,19.22,19.45,5.11,28.09-11.34,6.95-26.74,6.9-38.68,1.49-8.15-3.69-18.74-13.33-13.44-23.11,1.42-2.62,6.08-4.81,6.29-6.25.25-1.72-1.26-3.03-1.78-4.71-4.95-16.03,1.54-33.7,19.65-35.87ZM41.39,34.62c-3.59.39-9.46,4.65-7.9,8.65,1.46,1.02,3.39-2.17,4.54-2.98,1.94-1.37,3.52-2.07,5.88-1.44,1.33.35,3.48,2.5,4.36,1.18,1.15-3.85-3.66-5.75-6.88-5.4ZM61.37,39.62c-7.34,1.91-5.31,18.98,4.28,16.77,7.1-1.63,5.28-19.25-4.28-16.77ZM47.33,48.67c-1.61-1.62-4.31-2.06-6.48-1.56-4.52,1.04-6.07,10.62-2.58,10.92,3.62-.12,2.36-5.77,6.17-4.46,2.45,7.97,8,.26,2.89-4.89ZM58.83,82.83c-5.88,5.73-18.13-.86-19.8-8.12-.35-1.52.28-5.51-2.76-5.24-3.3.29-1.42,7.17-.66,9.15,4.66,11.99,24.89,15.4,35.22,9.47s5.12-22.39-5.31-15.31c-3.8,2.58-4.22,7.63-6.7,10.05Z"
        style="fill:none;" />
    <path
        d="M58.83,82.83c2.48-2.42,2.91-7.47,6.7-10.05,10.43-7.07,15.94,9.21,5.31,15.31s-30.57,2.52-35.22-9.47c-.77-1.98-2.64-8.86.66-9.15,3.04-.27,2.41,3.72,2.76,5.24,1.66,7.25,13.91,13.85,19.8,8.12ZM62,85.99c3.84.88,12.8-6.05,8.78-9.55-3.15-2.74-6.83,8.33-8.78,9.55Z" />
    <path d="M61.37,39.62c9.56-2.48,11.38,15.13,4.28,16.77-9.58,2.21-11.61-14.86-4.28-16.77Z" />
    <path
        d="M47.33,48.67c5.12,5.15-.44,12.86-2.89,4.89-3.81-1.31-2.55,4.34-6.17,4.46-3.49-.3-1.94-9.87,2.58-10.92,2.16-.5,4.87-.05,6.48,1.56Z" />
    <path
        d="M41.39,34.62c3.22-.35,8.02,1.55,6.88,5.4-.88,1.32-3.03-.83-4.36-1.18-2.36-.62-3.94.07-5.88,1.44-1.15.81-3.08,4-4.54,2.98-1.56-4,4.31-8.25,7.9-8.65Z" />
    <path d="M62,85.99c1.96-1.21,5.63-12.29,8.78-9.55,4.02,3.5-4.94,10.43-8.78,9.55Z"
        style="fill:none;" />
</svg>